<svg width="64" height="64" viewBox="0 0 64 64" fill="none" xmlns="http://www.w3.org/2000/svg">
<rect width="64" height="64" rx="20.7059" fill="#F0FF40"/>
<path d="M36.5339 38.2517C36.5339 35.9236 36.5111 33.5954 36.5401 31.2672C36.5671 29.0395 37.4571 27.1612 39.0918 25.6446C40.602 24.2418 42.4266 23.547 44.4938 23.5296C45.7489 23.5194 46.9148 23.9159 48.0526 24.417C50.4476 25.4725 51.6955 27.4153 52.3157 29.8173C53.1798 33.1599 51.4611 36.7946 48.2798 38.4249C45.8059 39.6966 43.3217 39.5808 40.8396 38.4423C40.4329 38.2558 40.2846 37.8439 40.462 37.4863C40.6394 37.1286 41.0501 37.0098 41.4619 37.1993C42.4587 37.6584 43.4991 37.9464 44.6038 37.9402C45.92 37.9292 47.2025 37.5284 48.2858 36.7897C49.369 36.0509 50.203 35.0082 50.68 33.7962C52.212 29.8931 49.6645 25.5893 45.4605 24.9785C41.9909 24.4744 38.6572 26.8558 38.0421 30.2856C37.9963 30.5454 37.9737 30.8088 37.9747 31.0725C37.9747 33.5032 37.9747 35.9338 37.9747 38.3644C37.9747 40.7951 37.9373 43.2062 37.9415 45.6266C37.9415 46.1933 37.4228 46.5417 36.9789 46.3531C36.8439 46.3039 36.7284 46.2133 36.6493 46.0946C36.5701 45.9758 36.5315 45.8352 36.5391 45.6932C36.5391 44.9093 36.5391 44.1244 36.5391 43.3364V38.2517H36.5339Z" fill="black" stroke="black" stroke-width="0.647309"/>
<path d="M24.6102 27.4974C26.1794 24.7206 28.4895 23.3136 31.644 23.5898C33.6831 23.7692 35.3041 24.7958 36.5251 26.446C36.2795 26.9294 36.044 27.3912 35.7974 27.8746C35.7131 27.7427 35.636 27.6139 35.5507 27.4912C34.215 25.5802 32.3931 24.6814 30.1074 25.0174C27.8216 25.3534 26.3123 26.7192 25.5846 28.926C25.4009 29.5403 25.3109 30.1795 25.3177 30.8215C25.2892 33.454 25.3065 36.0876 25.3045 38.7211C25.3045 39.1983 25.1147 39.4581 24.73 39.5261C24.6385 39.543 24.5445 39.5403 24.4541 39.5182C24.3637 39.4962 24.2787 39.4552 24.2048 39.398C24.1308 39.3408 24.0693 39.2686 24.0243 39.1859C23.9793 39.1033 23.9517 39.012 23.9434 38.918C23.9342 38.8067 23.9434 38.6953 23.9434 38.584C23.9434 35.9763 23.9434 33.3685 23.9434 30.7607C23.9541 29.6228 23.6415 28.5059 23.0431 27.5438C21.888 25.6802 19.5657 24.6113 17.4485 25.0288C15.0369 25.505 13.5195 26.9779 12.9054 29.3826C12.8061 29.8334 12.7615 30.2948 12.7724 30.7566C12.7603 33.3726 12.7664 35.9886 12.7653 38.6057C12.7696 38.7254 12.7621 38.8452 12.743 38.9633C12.7148 39.1298 12.6281 39.2802 12.4989 39.3866C12.3697 39.4929 12.2068 39.548 12.0406 39.5416C11.8743 39.5327 11.7165 39.4639 11.5956 39.3476C11.4746 39.2312 11.3985 39.0749 11.3809 38.9066C11.3738 38.8299 11.3717 38.7528 11.3748 38.6758C11.3748 35.9958 11.3413 33.3231 11.3839 30.6473C11.4296 27.7612 12.7329 25.6039 15.2581 24.2825C18.5538 22.557 22.698 23.9052 24.4529 27.217C24.4996 27.3067 24.5513 27.3933 24.6102 27.4974Z" fill="black" stroke="black" stroke-width="0.647309"/>
</svg>
