<svg width="50" height="50" viewBox="0 0 50 50" fill="none" xmlns="http://www.w3.org/2000/svg">
<path d="M46.8746 19.1407C46.878 20.6287 46.5862 22.1026 46.0163 23.4771C45.4464 24.8516 44.6096 26.0995 43.5543 27.1486L26.1129 44.8478C25.9675 44.9954 25.7942 45.1127 25.6031 45.1927C25.412 45.2727 25.2068 45.3139 24.9996 45.3139C24.7924 45.3139 24.5873 45.2727 24.3962 45.1927C24.205 45.1127 24.0317 44.9954 23.8864 44.8478L6.44495 27.1486C4.31855 25.0248 3.12293 22.1432 3.1211 19.1379C3.11926 16.1325 4.31138 13.2496 6.43518 11.1232C8.55898 8.99677 11.4405 7.80115 14.4459 7.79932C17.4512 7.79749 20.3342 8.9896 22.4606 11.1134L24.9996 13.4865L27.5563 11.1056C29.1431 9.52666 31.1621 8.45326 33.3585 8.02089C35.5549 7.58851 37.8301 7.81656 39.8969 8.67624C41.9638 9.53592 43.7296 10.9887 44.9715 12.8511C46.2134 14.7136 46.8756 16.9022 46.8746 19.1407Z" fill="#FF53CF"/>
</svg>
