<svg width="64" height="64" viewBox="0 0 64 64" fill="none" xmlns="http://www.w3.org/2000/svg">
<g clip-path="url(#clip0_233_2497)">
<rect width="64" height="64" rx="32" fill="#F0FF41"/>
<path d="M45.4999 32.0001C45.4999 32.2985 45.3814 32.5847 45.1704 32.7956C44.9594 33.0066 44.6733 33.1251 44.3749 33.1251H22.3404L30.5458 41.3292C30.6504 41.4337 30.7333 41.5578 30.7899 41.6944C30.8464 41.8309 30.8755 41.9773 30.8755 42.1251C30.8755 42.273 30.8464 42.4193 30.7899 42.5559C30.7333 42.6925 30.6504 42.8166 30.5458 42.9211C30.4413 43.0256 30.3172 43.1085 30.1807 43.1651C30.0441 43.2216 29.8977 43.2508 29.7499 43.2508C29.6021 43.2508 29.4557 43.2216 29.3191 43.1651C29.1826 43.1085 29.0585 43.0256 28.954 42.9211L18.829 32.7961C18.7244 32.6916 18.6414 32.5675 18.5848 32.4309C18.5282 32.2944 18.499 32.148 18.499 32.0001C18.499 31.8523 18.5282 31.7059 18.5848 31.5693C18.6414 31.4328 18.7244 31.3087 18.829 31.2042L28.954 21.0792C29.1651 20.8681 29.4514 20.7495 29.7499 20.7495C30.0484 20.7495 30.3348 20.8681 30.5458 21.0792C30.7569 21.2903 30.8755 21.5766 30.8755 21.8751C30.8755 22.1737 30.7569 22.46 30.5458 22.6711L22.3404 30.8751H44.3749C44.6733 30.8751 44.9594 30.9937 45.1704 31.2046C45.3814 31.4156 45.4999 31.7018 45.4999 32.0001Z" fill="#141414"/>
</g>
<defs>
<clipPath id="clip0_233_2497">
<rect width="64" height="64" rx="32" fill="white"/>
</clipPath>
</defs>
</svg>
