<svg width="64" height="64" viewBox="0 0 64 64" fill="none" xmlns="http://www.w3.org/2000/svg">
<g clip-path="url(#clip0_233_2494)">
<rect x="64" y="64" width="64" height="64" rx="32" transform="rotate(-180 64 64)" fill="#F0FF41"/>
<path d="M18.5001 31.9999C18.5001 31.7015 18.6186 31.4153 18.8296 31.2044C19.0406 30.9934 19.3267 30.8749 19.6251 30.8749L41.6596 30.8749L33.4542 22.6708C33.3496 22.5663 33.2667 22.4422 33.2102 22.3056C33.1536 22.1691 33.1245 22.0227 33.1245 21.8749C33.1245 21.727 33.1536 21.5807 33.2102 21.4441C33.2667 21.3075 33.3496 21.1834 33.4542 21.0789C33.5587 20.9744 33.6828 20.8915 33.8193 20.8349C33.9559 20.7784 34.1023 20.7492 34.2501 20.7492C34.3979 20.7492 34.5443 20.7784 34.6809 20.8349C34.8174 20.8915 34.9415 20.9744 35.046 21.0789L45.171 31.2039C45.2756 31.3084 45.3586 31.4325 45.4152 31.5691C45.4718 31.7056 45.501 31.852 45.501 31.9999C45.501 32.1477 45.4718 32.2941 45.4152 32.4307C45.3586 32.5672 45.2756 32.6913 45.171 32.7958L35.046 42.9208C34.8349 43.1319 34.5486 43.2505 34.2501 43.2505C33.9516 43.2505 33.6652 43.1319 33.4542 42.9208C33.2431 42.7097 33.1245 42.4234 33.1245 42.1249C33.1245 41.8263 33.2431 41.54 33.4542 41.3289L41.6596 33.1249L19.6251 33.1249C19.3267 33.1249 19.0406 33.0063 18.8296 32.7954C18.6186 32.5844 18.5001 32.2982 18.5001 31.9999Z" fill="#141414"/>
</g>
<defs>
<clipPath id="clip0_233_2494">
<rect x="64" y="64" width="64" height="64" rx="32" transform="rotate(-180 64 64)" fill="white"/>
</clipPath>
</defs>
</svg>
