<svg width="25" height="20" viewBox="0 0 25 20" fill="none" xmlns="http://www.w3.org/2000/svg">
<path d="M13.7927 19.7071C13.6997 19.6142 13.626 19.5039 13.5756 19.3825C13.5253 19.2611 13.4994 19.131 13.4994 18.9996C13.4994 18.8682 13.5253 18.738 13.5756 18.6166C13.626 18.4952 13.6997 18.385 13.7927 18.2921L21.0864 10.9996L1.50019 10.9996C1.23497 10.9996 0.980619 10.8942 0.793083 10.7067C0.605546 10.5191 0.50019 10.2648 0.50019 9.99958C0.50019 9.73436 0.605547 9.48001 0.793083 9.29247C0.980619 9.10494 1.23497 8.99958 1.50019 8.99958L21.0864 8.99958L13.7927 1.70708C13.605 1.51944 13.4996 1.26494 13.4996 0.999579C13.4996 0.734215 13.605 0.47972 13.7927 0.292079C13.9803 0.104438 14.2348 -0.000977009 14.5002 -0.000977C14.7656 -0.00097699 15.0201 0.104438 15.2077 0.292079L24.2077 9.29208C24.3007 9.38495 24.3744 9.49524 24.4247 9.61664C24.4751 9.73804 24.501 9.86816 24.501 9.99958C24.501 10.131 24.4751 10.2611 24.4247 10.3825C24.3744 10.5039 24.3007 10.6142 24.2077 10.7071L15.2077 19.7071C15.1148 19.8001 15.0045 19.8738 14.8831 19.9241C14.7617 19.9745 14.6316 20.0004 14.5002 20.0004C14.3688 20.0004 14.2386 19.9745 14.1172 19.9241C13.9959 19.8738 13.8856 19.8001 13.7927 19.7071Z" fill="#343330"/>
</svg>
