<svg width="136" height="136" viewBox="0 0 136 136" fill="none" xmlns="http://www.w3.org/2000/svg">
<rect width="136" height="136" rx="32" fill="#FFDCDC"/>
<path d="M115 52.8833C115.007 56.0168 114.38 59.1205 113.156 62.0151C111.932 64.9096 110.134 67.5374 107.867 69.7465L70.3955 107.018C70.0832 107.329 69.7109 107.576 69.3003 107.745C68.8896 107.913 68.4489 108 68.0038 108C67.5586 108 67.1179 107.913 66.7073 107.745C66.2967 107.576 65.9244 107.329 65.612 107.018L28.141 69.7465C23.5726 65.2741 21.0039 59.2061 21 52.8773C20.9961 46.5485 23.5572 40.4774 28.12 35.9995C32.6827 31.5217 38.8734 29.0039 45.3301 29C51.7867 28.9961 57.9805 31.5066 62.5489 35.979L68.0038 40.9762L73.4964 35.9625C76.9055 32.6375 81.2432 30.3771 85.9619 29.4666C90.6806 28.5561 95.5687 29.0363 100.009 30.8467C104.45 32.657 108.243 35.7163 110.911 39.6384C113.579 43.5604 115.002 48.1693 115 52.8833Z" fill="#F25555"/>
</svg>
