<svg width="50" height="50" viewBox="0 0 50 50" fill="none" xmlns="http://www.w3.org/2000/svg">
<path d="M46.8746 19.1406C46.878 20.6286 46.5862 22.1025 46.0163 23.477C45.4464 24.8515 44.6096 26.0994 43.5543 27.1484L26.1129 44.8477C25.9675 44.9953 25.7942 45.1125 25.6031 45.1926C25.412 45.2726 25.2068 45.3138 24.9996 45.3138C24.7924 45.3138 24.5873 45.2726 24.3962 45.1926C24.205 45.1125 24.0317 44.9953 23.8864 44.8477L6.44495 27.1484C4.31855 25.0246 3.12293 22.1431 3.1211 19.1378C3.11926 16.1324 4.31138 13.2494 6.43518 11.123C8.55898 8.99665 11.4405 7.80103 14.4459 7.7992C17.4512 7.79737 20.3342 8.98948 22.4606 11.1133L24.9996 13.4863L27.5563 11.1055C29.1431 9.52654 31.1621 8.45313 33.3585 8.02076C35.5549 7.58839 37.8301 7.81644 39.8969 8.67612C41.9638 9.5358 43.7296 10.9886 44.9715 12.851C46.2134 14.7135 46.8756 16.9021 46.8746 19.1406Z" fill="#F0FF40"/>
</svg>
